<mxfile host="app.diagrams.net" modified="2024-02-26T08:50:27.824Z" agent="Mozilla/5.0 (Macintosh; Intel Mac OS X 10_15_7) AppleWebKit/537.36 (KHTML, like Gecko) Chrome/121.0.0.0 Safari/537.36" etag="Hgkas4V5b2omNe01a78b" version="23.1.2" type="device">
  <diagram name="Page-1" id="KLL6vwUVRnm_3_NFHlJs">
    <mxGraphModel dx="954" dy="640" grid="1" gridSize="10" guides="1" tooltips="1" connect="1" arrows="1" fold="1" page="1" pageScale="1" pageWidth="850" pageHeight="1100" math="0" shadow="0">
      <root>
        <mxCell id="0" />
        <mxCell id="1" parent="0" />
        <mxCell id="mnb-A4n5rvF330WSBu19-19" value="" style="rounded=0;whiteSpace=wrap;html=1;" vertex="1" parent="1">
          <mxGeometry x="40" y="40" width="240" height="200" as="geometry" />
        </mxCell>
        <mxCell id="mnb-A4n5rvF330WSBu19-22" value="" style="rounded=0;whiteSpace=wrap;html=1;" vertex="1" parent="1">
          <mxGeometry x="280" y="40" width="240" height="200" as="geometry" />
        </mxCell>
        <mxCell id="mnb-A4n5rvF330WSBu19-23" value="" style="rounded=0;whiteSpace=wrap;html=1;" vertex="1" parent="1">
          <mxGeometry x="520" y="40" width="240" height="200" as="geometry" />
        </mxCell>
        <mxCell id="mnb-A4n5rvF330WSBu19-24" value="" style="rounded=0;whiteSpace=wrap;html=1;" vertex="1" parent="1">
          <mxGeometry x="40" y="240" width="240" height="200" as="geometry" />
        </mxCell>
        <mxCell id="mnb-A4n5rvF330WSBu19-25" value="" style="rounded=0;whiteSpace=wrap;html=1;" vertex="1" parent="1">
          <mxGeometry x="280" y="240" width="240" height="200" as="geometry" />
        </mxCell>
        <mxCell id="mnb-A4n5rvF330WSBu19-26" value="" style="rounded=0;whiteSpace=wrap;html=1;" vertex="1" parent="1">
          <mxGeometry x="520" y="240" width="240" height="200" as="geometry" />
        </mxCell>
        <mxCell id="mnb-A4n5rvF330WSBu19-27" value="" style="rounded=0;whiteSpace=wrap;html=1;" vertex="1" parent="1">
          <mxGeometry x="40" y="440" width="240" height="200" as="geometry" />
        </mxCell>
        <mxCell id="mnb-A4n5rvF330WSBu19-28" value="" style="rounded=0;whiteSpace=wrap;html=1;" vertex="1" parent="1">
          <mxGeometry x="280" y="440" width="240" height="200" as="geometry" />
        </mxCell>
        <mxCell id="mnb-A4n5rvF330WSBu19-29" value="" style="rounded=0;whiteSpace=wrap;html=1;" vertex="1" parent="1">
          <mxGeometry x="520" y="440" width="240" height="200" as="geometry" />
        </mxCell>
        <mxCell id="mnb-A4n5rvF330WSBu19-30" value="" style="rounded=0;whiteSpace=wrap;html=1;" vertex="1" parent="1">
          <mxGeometry x="40" y="640" width="240" height="200" as="geometry" />
        </mxCell>
        <mxCell id="mnb-A4n5rvF330WSBu19-31" value="" style="rounded=0;whiteSpace=wrap;html=1;" vertex="1" parent="1">
          <mxGeometry x="280" y="640" width="240" height="200" as="geometry" />
        </mxCell>
        <mxCell id="mnb-A4n5rvF330WSBu19-32" value="" style="rounded=0;whiteSpace=wrap;html=1;" vertex="1" parent="1">
          <mxGeometry x="520" y="640" width="240" height="200" as="geometry" />
        </mxCell>
        <mxCell id="mnb-A4n5rvF330WSBu19-33" value="" style="rounded=0;whiteSpace=wrap;html=1;" vertex="1" parent="1">
          <mxGeometry x="40" y="840" width="240" height="200" as="geometry" />
        </mxCell>
        <mxCell id="mnb-A4n5rvF330WSBu19-34" value="" style="rounded=0;whiteSpace=wrap;html=1;" vertex="1" parent="1">
          <mxGeometry x="280" y="840" width="240" height="200" as="geometry" />
        </mxCell>
        <mxCell id="mnb-A4n5rvF330WSBu19-35" value="" style="rounded=0;whiteSpace=wrap;html=1;" vertex="1" parent="1">
          <mxGeometry x="520" y="840" width="240" height="200" as="geometry" />
        </mxCell>
        <mxCell id="mnb-A4n5rvF330WSBu19-39" value="" style="ellipse;whiteSpace=wrap;html=1;" vertex="1" parent="1">
          <mxGeometry x="90" y="155" width="120" height="80" as="geometry" />
        </mxCell>
        <mxCell id="mnb-A4n5rvF330WSBu19-36" value="&quot;UNCC Clubs for socializing&quot;" style="text;html=1;strokeColor=none;fillColor=none;align=center;verticalAlign=middle;whiteSpace=wrap;rounded=0;" vertex="1" parent="1">
          <mxGeometry x="120" y="180" width="60" height="30" as="geometry" />
        </mxCell>
        <mxCell id="mnb-A4n5rvF330WSBu19-41" value="&lt;font style=&quot;font-size: 14px;&quot;&gt;Searching Web&lt;/font&gt;" style="text;html=1;strokeColor=none;fillColor=none;align=center;verticalAlign=middle;whiteSpace=wrap;rounded=0;" vertex="1" parent="1">
          <mxGeometry x="90" y="110" width="140" height="30" as="geometry" />
        </mxCell>
        <mxCell id="mnb-A4n5rvF330WSBu19-46" value="" style="ellipse;whiteSpace=wrap;html=1;" vertex="1" parent="1">
          <mxGeometry x="285" y="45" width="230" height="40" as="geometry" />
        </mxCell>
        <mxCell id="mnb-A4n5rvF330WSBu19-43" value="Google" style="text;html=1;strokeColor=none;fillColor=none;align=center;verticalAlign=middle;whiteSpace=wrap;rounded=0;" vertex="1" parent="1">
          <mxGeometry x="300" y="50" width="60" height="30" as="geometry" />
        </mxCell>
        <mxCell id="mnb-A4n5rvF330WSBu19-44" value="&quot;UNCC Clubs for socializing&quot;" style="text;html=1;strokeColor=none;fillColor=none;align=center;verticalAlign=middle;whiteSpace=wrap;rounded=0;" vertex="1" parent="1">
          <mxGeometry x="310" y="50" width="240" height="30" as="geometry" />
        </mxCell>
        <mxCell id="mnb-A4n5rvF330WSBu19-47" value="&lt;h1&gt;&lt;span style=&quot;background-color: initial;&quot;&gt;(Cluttered&amp;nbsp;Mess)&lt;/span&gt;&lt;/h1&gt;&lt;h1&gt;&lt;span style=&quot;background-color: initial; font-size: 12px; font-weight: normal;&quot;&gt;Lorem ipsum dolor sit amet, consectetur adipisicing elit, sed do eiusmod tempor incididunt ut labore et dolore magna aliqua.&lt;/span&gt;&lt;br&gt;&lt;/h1&gt;" style="text;html=1;strokeColor=none;fillColor=none;spacing=5;spacingTop=-20;whiteSpace=wrap;overflow=hidden;rounded=0;" vertex="1" parent="1">
          <mxGeometry x="290" y="100" width="220" height="140" as="geometry" />
        </mxCell>
        <mxCell id="mnb-A4n5rvF330WSBu19-48" value="" style="strokeWidth=1;shadow=0;dashed=0;align=center;html=1;shape=mxgraph.mockup.containers.browserWindow;rSize=0;strokeColor=#666666;strokeColor2=#008cff;strokeColor3=#c4c4c4;mainText=,;recursiveResize=0;" vertex="1" parent="1">
          <mxGeometry x="520" y="45" width="180" height="120" as="geometry" />
        </mxCell>
        <mxCell id="mnb-A4n5rvF330WSBu19-51" value="" style="ellipse;whiteSpace=wrap;html=1;aspect=fixed;fillColor=none;strokeColor=#b85450;" vertex="1" parent="mnb-A4n5rvF330WSBu19-48">
          <mxGeometry y="53" width="40" height="40" as="geometry" />
        </mxCell>
        <mxCell id="mnb-A4n5rvF330WSBu19-49" value="Page 1" style="strokeWidth=1;shadow=0;dashed=0;align=center;html=1;shape=mxgraph.mockup.containers.anchor;fontSize=17;fontColor=#666666;align=left;whiteSpace=wrap;" vertex="1" parent="mnb-A4n5rvF330WSBu19-48">
          <mxGeometry x="60" y="12" width="110" height="26" as="geometry" />
        </mxCell>
        <mxCell id="mnb-A4n5rvF330WSBu19-50" value="https://www.draw.io" style="strokeWidth=1;shadow=0;dashed=0;align=center;html=1;shape=mxgraph.mockup.containers.anchor;rSize=0;fontSize=17;fontColor=#666666;align=left;" vertex="1" parent="mnb-A4n5rvF330WSBu19-48">
          <mxGeometry x="130" y="60" width="250" height="26" as="geometry" />
        </mxCell>
        <mxCell id="mnb-A4n5rvF330WSBu19-53" value="User can&#39;t find specific information, goes back to searching" style="text;html=1;strokeColor=none;fillColor=none;align=center;verticalAlign=middle;whiteSpace=wrap;rounded=0;" vertex="1" parent="1">
          <mxGeometry x="530" y="190" width="220" height="30" as="geometry" />
        </mxCell>
        <mxCell id="mnb-A4n5rvF330WSBu19-57" value="" style="ellipse;whiteSpace=wrap;html=1;" vertex="1" parent="1">
          <mxGeometry x="80" y="325" width="120" height="80" as="geometry" />
        </mxCell>
        <mxCell id="mnb-A4n5rvF330WSBu19-58" value="UNCC up to date events" style="text;html=1;strokeColor=none;fillColor=none;align=center;verticalAlign=middle;whiteSpace=wrap;rounded=0;" vertex="1" parent="1">
          <mxGeometry x="110" y="350" width="60" height="30" as="geometry" />
        </mxCell>
        <mxCell id="mnb-A4n5rvF330WSBu19-59" value="&lt;font style=&quot;font-size: 14px;&quot;&gt;Searching Web&lt;/font&gt;" style="text;html=1;strokeColor=none;fillColor=none;align=center;verticalAlign=middle;whiteSpace=wrap;rounded=0;" vertex="1" parent="1">
          <mxGeometry x="80" y="280" width="140" height="30" as="geometry" />
        </mxCell>
        <mxCell id="mnb-A4n5rvF330WSBu19-65" value="Google" style="text;html=1;strokeColor=none;fillColor=none;align=center;verticalAlign=middle;whiteSpace=wrap;rounded=0;" vertex="1" parent="1">
          <mxGeometry x="300" y="245" width="60" height="30" as="geometry" />
        </mxCell>
        <mxCell id="mnb-A4n5rvF330WSBu19-66" value="UNCC up to date events" style="text;html=1;strokeColor=none;fillColor=none;align=center;verticalAlign=middle;whiteSpace=wrap;rounded=0;" vertex="1" parent="1">
          <mxGeometry x="310" y="245" width="240" height="30" as="geometry" />
        </mxCell>
        <mxCell id="mnb-A4n5rvF330WSBu19-67" value="&lt;h1&gt;&lt;span style=&quot;background-color: initial;&quot;&gt;UNCC Tool&lt;/span&gt;&lt;/h1&gt;&lt;h1&gt;&lt;span style=&quot;font-size: 12px; font-weight: 400;&quot;&gt;Tool for helping students filter out clubs, events, and help them find what they&#39;re looking for based on major and interests.&lt;/span&gt;&lt;/h1&gt;" style="text;html=1;strokeColor=none;fillColor=none;spacing=5;spacingTop=-20;whiteSpace=wrap;overflow=hidden;rounded=0;" vertex="1" parent="1">
          <mxGeometry x="290" y="270" width="220" height="140" as="geometry" />
        </mxCell>
        <mxCell id="mnb-A4n5rvF330WSBu19-71" value="&lt;font style=&quot;font-size: 14px;&quot;&gt;NINER NET&lt;/font&gt;" style="text;html=1;strokeColor=none;fillColor=none;align=center;verticalAlign=middle;whiteSpace=wrap;rounded=0;" vertex="1" parent="1">
          <mxGeometry x="590" y="250" width="110" height="30" as="geometry" />
        </mxCell>
        <mxCell id="mnb-A4n5rvF330WSBu19-72" value="" style="rounded=0;whiteSpace=wrap;html=1;" vertex="1" parent="1">
          <mxGeometry x="575" y="290" width="140" height="20" as="geometry" />
        </mxCell>
        <mxCell id="mnb-A4n5rvF330WSBu19-73" value="" style="rounded=0;whiteSpace=wrap;html=1;" vertex="1" parent="1">
          <mxGeometry x="575" y="330" width="140" height="20" as="geometry" />
        </mxCell>
        <mxCell id="mnb-A4n5rvF330WSBu19-74" value="Username" style="text;html=1;strokeColor=none;fillColor=none;align=center;verticalAlign=middle;whiteSpace=wrap;rounded=0;" vertex="1" parent="1">
          <mxGeometry x="570" y="270" width="60" height="30" as="geometry" />
        </mxCell>
        <mxCell id="mnb-A4n5rvF330WSBu19-76" value="Password" style="text;html=1;strokeColor=none;fillColor=none;align=center;verticalAlign=middle;whiteSpace=wrap;rounded=0;" vertex="1" parent="1">
          <mxGeometry x="575" y="310" width="60" height="30" as="geometry" />
        </mxCell>
        <mxCell id="mnb-A4n5rvF330WSBu19-77" value="Login" style="rounded=1;whiteSpace=wrap;html=1;" vertex="1" parent="1">
          <mxGeometry x="580" y="370" width="120" height="60" as="geometry" />
        </mxCell>
        <mxCell id="mnb-A4n5rvF330WSBu19-78" value="&lt;font style=&quot;font-size: 18px;&quot;&gt;Would you like to receive nontifications for ongoing events and clubs?&lt;/font&gt;" style="text;html=1;strokeColor=none;fillColor=none;align=center;verticalAlign=middle;whiteSpace=wrap;rounded=0;" vertex="1" parent="1">
          <mxGeometry x="80" y="510" width="160" height="30" as="geometry" />
        </mxCell>
        <mxCell id="mnb-A4n5rvF330WSBu19-79" value="Yes" style="rounded=1;whiteSpace=wrap;html=1;" vertex="1" parent="1">
          <mxGeometry x="80" y="590" width="60" height="30" as="geometry" />
        </mxCell>
        <mxCell id="mnb-A4n5rvF330WSBu19-80" value="Username" style="text;html=1;strokeColor=none;fillColor=none;align=center;verticalAlign=middle;whiteSpace=wrap;rounded=0;" vertex="1" parent="1">
          <mxGeometry x="590" y="290" width="60" height="30" as="geometry" />
        </mxCell>
        <mxCell id="mnb-A4n5rvF330WSBu19-81" value="No" style="rounded=1;whiteSpace=wrap;html=1;" vertex="1" parent="1">
          <mxGeometry x="170" y="590" width="60" height="30" as="geometry" />
        </mxCell>
        <mxCell id="mnb-A4n5rvF330WSBu19-82" value="If Yes," style="text;html=1;strokeColor=none;fillColor=none;align=center;verticalAlign=middle;whiteSpace=wrap;rounded=0;" vertex="1" parent="1">
          <mxGeometry x="370" y="460" width="60" height="30" as="geometry" />
        </mxCell>
        <mxCell id="mnb-A4n5rvF330WSBu19-83" value="What type of notifications would you like to receive?&amp;nbsp;" style="text;html=1;strokeColor=none;fillColor=none;align=center;verticalAlign=middle;whiteSpace=wrap;rounded=0;" vertex="1" parent="1">
          <mxGeometry x="320" y="490" width="160" height="30" as="geometry" />
        </mxCell>
        <mxCell id="mnb-A4n5rvF330WSBu19-84" value="Where would you like to be notified?&amp;nbsp;" style="text;html=1;strokeColor=none;fillColor=none;align=center;verticalAlign=middle;whiteSpace=wrap;rounded=0;" vertex="1" parent="1">
          <mxGeometry x="320" y="550" width="160" height="30" as="geometry" />
        </mxCell>
        <mxCell id="mnb-A4n5rvF330WSBu19-93" value="&lt;font style=&quot;font-size: 14px;&quot;&gt;Lorem ipsum dolor sit amet, consectetur adipisicing elit, sed do eiusmod tempor incididunt ut labore et dolore magna aliqua.&lt;/font&gt;" style="rounded=1;whiteSpace=wrap;html=1;" vertex="1" parent="1">
          <mxGeometry x="60" y="680" width="200" height="120" as="geometry" />
        </mxCell>
        <mxCell id="mnb-A4n5rvF330WSBu19-94" value="Clubs Directory" style="text;html=1;strokeColor=none;fillColor=none;align=center;verticalAlign=middle;whiteSpace=wrap;rounded=0;" vertex="1" parent="1">
          <mxGeometry x="60" y="650" width="60" height="30" as="geometry" />
        </mxCell>
        <mxCell id="mnb-A4n5rvF330WSBu19-95" value="" style="endArrow=none;html=1;rounded=0;" edge="1" parent="1" target="mnb-A4n5rvF330WSBu19-93">
          <mxGeometry width="50" height="50" relative="1" as="geometry">
            <mxPoint x="60" y="720" as="sourcePoint" />
            <mxPoint x="110" y="670" as="targetPoint" />
            <Array as="points">
              <mxPoint x="260" y="720" />
            </Array>
          </mxGeometry>
        </mxCell>
        <mxCell id="mnb-A4n5rvF330WSBu19-96" value="" style="endArrow=none;html=1;rounded=0;" edge="1" parent="1">
          <mxGeometry width="50" height="50" relative="1" as="geometry">
            <mxPoint x="60" y="754.5" as="sourcePoint" />
            <mxPoint x="260" y="754.5" as="targetPoint" />
            <Array as="points">
              <mxPoint x="260" y="754.5" />
            </Array>
          </mxGeometry>
        </mxCell>
        <mxCell id="mnb-A4n5rvF330WSBu19-97" value="Text" style="edgeLabel;html=1;align=center;verticalAlign=middle;resizable=0;points=[];" vertex="1" connectable="0" parent="mnb-A4n5rvF330WSBu19-96">
          <mxGeometry x="0.01" y="-1" relative="1" as="geometry">
            <mxPoint as="offset" />
          </mxGeometry>
        </mxCell>
        <mxCell id="mnb-A4n5rvF330WSBu19-98" value="Event Info" style="rounded=1;whiteSpace=wrap;html=1;" vertex="1" parent="1">
          <mxGeometry x="530" y="470" width="100" height="20" as="geometry" />
        </mxCell>
        <mxCell id="mnb-A4n5rvF330WSBu19-100" value="Club Directory" style="rounded=1;whiteSpace=wrap;html=1;" vertex="1" parent="1">
          <mxGeometry x="630" y="470" width="100" height="20" as="geometry" />
        </mxCell>
        <mxCell id="mnb-A4n5rvF330WSBu19-101" value="" style="rounded=1;whiteSpace=wrap;html=1;" vertex="1" parent="1">
          <mxGeometry x="730" y="470" width="30" height="20" as="geometry" />
        </mxCell>
        <mxCell id="mnb-A4n5rvF330WSBu19-102" value="Home Page" style="text;html=1;strokeColor=none;fillColor=none;align=center;verticalAlign=middle;whiteSpace=wrap;rounded=0;" vertex="1" parent="1">
          <mxGeometry x="610" y="600" width="60" height="30" as="geometry" />
        </mxCell>
        <mxCell id="mnb-A4n5rvF330WSBu19-103" value="" style="verticalLabelPosition=bottom;shadow=0;dashed=0;align=center;html=1;verticalAlign=top;strokeWidth=1;shape=mxgraph.mockup.graphics.simpleIcon;strokeColor=#999999;" vertex="1" parent="1">
          <mxGeometry x="615" y="525" width="50" height="50" as="geometry" />
        </mxCell>
        <mxCell id="mnb-A4n5rvF330WSBu19-104" value="" style="strokeWidth=1;shadow=0;dashed=0;align=center;html=1;shape=mxgraph.mockup.containers.browserWindow;rSize=0;strokeColor=#666666;strokeColor2=#008cff;strokeColor3=#c4c4c4;mainText=,;recursiveResize=0;" vertex="1" parent="1">
          <mxGeometry x="280" y="650" width="240" height="120" as="geometry" />
        </mxCell>
        <mxCell id="mnb-A4n5rvF330WSBu19-105" value="" style="ellipse;whiteSpace=wrap;html=1;aspect=fixed;fillColor=none;strokeColor=#b85450;" vertex="1" parent="mnb-A4n5rvF330WSBu19-104">
          <mxGeometry y="53" width="40" height="40" as="geometry" />
        </mxCell>
        <mxCell id="mnb-A4n5rvF330WSBu19-106" value="Page 1" style="strokeWidth=1;shadow=0;dashed=0;align=center;html=1;shape=mxgraph.mockup.containers.anchor;fontSize=17;fontColor=#666666;align=left;whiteSpace=wrap;" vertex="1" parent="mnb-A4n5rvF330WSBu19-104">
          <mxGeometry x="60" y="12" width="110" height="26" as="geometry" />
        </mxCell>
        <mxCell id="mnb-A4n5rvF330WSBu19-107" value="https://www.draw.io" style="strokeWidth=1;shadow=0;dashed=0;align=center;html=1;shape=mxgraph.mockup.containers.anchor;rSize=0;fontSize=17;fontColor=#666666;align=left;" vertex="1" parent="mnb-A4n5rvF330WSBu19-104">
          <mxGeometry x="130" y="60" width="110" height="26" as="geometry" />
        </mxCell>
        <mxCell id="mnb-A4n5rvF330WSBu19-108" value="User goes back" style="text;html=1;strokeColor=none;fillColor=none;align=center;verticalAlign=middle;whiteSpace=wrap;rounded=0;" vertex="1" parent="1">
          <mxGeometry x="290" y="795" width="220" height="30" as="geometry" />
        </mxCell>
        <mxCell id="mnb-A4n5rvF330WSBu19-109" value="Event Info" style="rounded=1;whiteSpace=wrap;html=1;" vertex="1" parent="1">
          <mxGeometry x="540" y="665" width="100" height="20" as="geometry" />
        </mxCell>
        <mxCell id="mnb-A4n5rvF330WSBu19-110" value="Club Directory" style="rounded=1;whiteSpace=wrap;html=1;" vertex="1" parent="1">
          <mxGeometry x="640" y="665" width="100" height="20" as="geometry" />
        </mxCell>
        <mxCell id="mnb-A4n5rvF330WSBu19-111" value="" style="rounded=1;whiteSpace=wrap;html=1;" vertex="1" parent="1">
          <mxGeometry x="740" y="665" width="30" height="20" as="geometry" />
        </mxCell>
        <mxCell id="mnb-A4n5rvF330WSBu19-112" value="Home Page" style="text;html=1;strokeColor=none;fillColor=none;align=center;verticalAlign=middle;whiteSpace=wrap;rounded=0;" vertex="1" parent="1">
          <mxGeometry x="620" y="795" width="60" height="30" as="geometry" />
        </mxCell>
        <mxCell id="mnb-A4n5rvF330WSBu19-113" value="" style="verticalLabelPosition=bottom;shadow=0;dashed=0;align=center;html=1;verticalAlign=top;strokeWidth=1;shape=mxgraph.mockup.graphics.simpleIcon;strokeColor=#999999;" vertex="1" parent="1">
          <mxGeometry x="625" y="720" width="50" height="50" as="geometry" />
        </mxCell>
        <mxCell id="mnb-A4n5rvF330WSBu19-114" value="" style="ellipse;whiteSpace=wrap;html=1;aspect=fixed;fillColor=none;strokeColor=#b85450;" vertex="1" parent="1">
          <mxGeometry x="560" y="645" width="60" height="60" as="geometry" />
        </mxCell>
        <mxCell id="mnb-A4n5rvF330WSBu19-115" style="edgeStyle=orthogonalEdgeStyle;rounded=0;orthogonalLoop=1;jettySize=auto;html=1;exitX=0.5;exitY=1;exitDx=0;exitDy=0;entryX=0.5;entryY=0.667;entryDx=0;entryDy=0;entryPerimeter=0;" edge="1" parent="1" source="mnb-A4n5rvF330WSBu19-94" target="mnb-A4n5rvF330WSBu19-94">
          <mxGeometry relative="1" as="geometry" />
        </mxCell>
        <mxCell id="mnb-A4n5rvF330WSBu19-116" value="&lt;font style=&quot;font-size: 14px;&quot;&gt;Lorem ipsum dolor sit amet, consectetur adipisicing elit, sed do eiusmod tempor incididunt ut labore et dolore magna aliqua.&lt;/font&gt;" style="rounded=1;whiteSpace=wrap;html=1;" vertex="1" parent="1">
          <mxGeometry x="60" y="890" width="200" height="120" as="geometry" />
        </mxCell>
        <mxCell id="mnb-A4n5rvF330WSBu19-117" value="School Events/Club Events" style="text;html=1;strokeColor=none;fillColor=none;align=center;verticalAlign=middle;whiteSpace=wrap;rounded=0;" vertex="1" parent="1">
          <mxGeometry x="60" y="860" width="160" height="30" as="geometry" />
        </mxCell>
        <mxCell id="mnb-A4n5rvF330WSBu19-118" value="" style="endArrow=none;html=1;rounded=0;" edge="1" parent="1" target="mnb-A4n5rvF330WSBu19-116">
          <mxGeometry width="50" height="50" relative="1" as="geometry">
            <mxPoint x="60" y="930" as="sourcePoint" />
            <mxPoint x="110" y="880" as="targetPoint" />
            <Array as="points">
              <mxPoint x="260" y="930" />
            </Array>
          </mxGeometry>
        </mxCell>
        <mxCell id="mnb-A4n5rvF330WSBu19-119" value="" style="endArrow=none;html=1;rounded=0;" edge="1" parent="1">
          <mxGeometry width="50" height="50" relative="1" as="geometry">
            <mxPoint x="60" y="964.5" as="sourcePoint" />
            <mxPoint x="260" y="964.5" as="targetPoint" />
            <Array as="points">
              <mxPoint x="260" y="964.5" />
            </Array>
          </mxGeometry>
        </mxCell>
        <mxCell id="mnb-A4n5rvF330WSBu19-120" value="Text" style="edgeLabel;html=1;align=center;verticalAlign=middle;resizable=0;points=[];" vertex="1" connectable="0" parent="mnb-A4n5rvF330WSBu19-119">
          <mxGeometry x="0.01" y="-1" relative="1" as="geometry">
            <mxPoint as="offset" />
          </mxGeometry>
        </mxCell>
        <mxCell id="mnb-A4n5rvF330WSBu19-121" value="" style="rounded=0;whiteSpace=wrap;html=1;" vertex="1" parent="1">
          <mxGeometry x="300" y="880" width="40" height="40" as="geometry" />
        </mxCell>
        <mxCell id="mnb-A4n5rvF330WSBu19-122" value="" style="rounded=0;whiteSpace=wrap;html=1;" vertex="1" parent="1">
          <mxGeometry x="340" y="880" width="40" height="40" as="geometry" />
        </mxCell>
        <mxCell id="mnb-A4n5rvF330WSBu19-123" value="" style="rounded=0;whiteSpace=wrap;html=1;" vertex="1" parent="1">
          <mxGeometry x="380" y="880" width="40" height="40" as="geometry" />
        </mxCell>
        <mxCell id="mnb-A4n5rvF330WSBu19-124" value="" style="rounded=0;whiteSpace=wrap;html=1;" vertex="1" parent="1">
          <mxGeometry x="420" y="880" width="40" height="40" as="geometry" />
        </mxCell>
        <mxCell id="mnb-A4n5rvF330WSBu19-125" value="" style="rounded=0;whiteSpace=wrap;html=1;" vertex="1" parent="1">
          <mxGeometry x="460" y="880" width="40" height="40" as="geometry" />
        </mxCell>
        <mxCell id="mnb-A4n5rvF330WSBu19-126" value="" style="rounded=0;whiteSpace=wrap;html=1;" vertex="1" parent="1">
          <mxGeometry x="300" y="920" width="40" height="40" as="geometry" />
        </mxCell>
        <mxCell id="mnb-A4n5rvF330WSBu19-127" value="" style="rounded=0;whiteSpace=wrap;html=1;" vertex="1" parent="1">
          <mxGeometry x="340" y="920" width="40" height="40" as="geometry" />
        </mxCell>
        <mxCell id="mnb-A4n5rvF330WSBu19-128" value="" style="rounded=0;whiteSpace=wrap;html=1;" vertex="1" parent="1">
          <mxGeometry x="380" y="920" width="40" height="40" as="geometry" />
        </mxCell>
        <mxCell id="mnb-A4n5rvF330WSBu19-129" value="" style="rounded=0;whiteSpace=wrap;html=1;" vertex="1" parent="1">
          <mxGeometry x="420" y="920" width="40" height="40" as="geometry" />
        </mxCell>
        <mxCell id="mnb-A4n5rvF330WSBu19-130" value="" style="rounded=0;whiteSpace=wrap;html=1;" vertex="1" parent="1">
          <mxGeometry x="460" y="920" width="40" height="40" as="geometry" />
        </mxCell>
        <mxCell id="mnb-A4n5rvF330WSBu19-131" value="" style="rounded=0;whiteSpace=wrap;html=1;" vertex="1" parent="1">
          <mxGeometry x="300" y="960" width="40" height="40" as="geometry" />
        </mxCell>
        <mxCell id="mnb-A4n5rvF330WSBu19-132" value="" style="rounded=0;whiteSpace=wrap;html=1;" vertex="1" parent="1">
          <mxGeometry x="340" y="960" width="40" height="40" as="geometry" />
        </mxCell>
        <mxCell id="mnb-A4n5rvF330WSBu19-133" value="" style="rounded=0;whiteSpace=wrap;html=1;" vertex="1" parent="1">
          <mxGeometry x="380" y="960" width="40" height="40" as="geometry" />
        </mxCell>
        <mxCell id="mnb-A4n5rvF330WSBu19-134" value="" style="rounded=0;whiteSpace=wrap;html=1;" vertex="1" parent="1">
          <mxGeometry x="420" y="960" width="40" height="40" as="geometry" />
        </mxCell>
        <mxCell id="mnb-A4n5rvF330WSBu19-135" value="" style="rounded=0;whiteSpace=wrap;html=1;" vertex="1" parent="1">
          <mxGeometry x="460" y="960" width="40" height="40" as="geometry" />
        </mxCell>
        <mxCell id="mnb-A4n5rvF330WSBu19-136" value="" style="rounded=0;whiteSpace=wrap;html=1;" vertex="1" parent="1">
          <mxGeometry x="300" y="1000" width="40" height="40" as="geometry" />
        </mxCell>
        <mxCell id="mnb-A4n5rvF330WSBu19-137" value="" style="rounded=0;whiteSpace=wrap;html=1;" vertex="1" parent="1">
          <mxGeometry x="340" y="1000" width="40" height="40" as="geometry" />
        </mxCell>
        <mxCell id="mnb-A4n5rvF330WSBu19-138" value="" style="rounded=0;whiteSpace=wrap;html=1;" vertex="1" parent="1">
          <mxGeometry x="380" y="1000" width="40" height="40" as="geometry" />
        </mxCell>
        <mxCell id="mnb-A4n5rvF330WSBu19-139" value="" style="rounded=0;whiteSpace=wrap;html=1;" vertex="1" parent="1">
          <mxGeometry x="420" y="1000" width="40" height="40" as="geometry" />
        </mxCell>
        <mxCell id="mnb-A4n5rvF330WSBu19-140" value="" style="rounded=0;whiteSpace=wrap;html=1;" vertex="1" parent="1">
          <mxGeometry x="460" y="1000" width="40" height="40" as="geometry" />
        </mxCell>
        <mxCell id="mnb-A4n5rvF330WSBu19-141" value="Calender of Events" style="text;html=1;strokeColor=none;fillColor=none;align=center;verticalAlign=middle;whiteSpace=wrap;rounded=0;" vertex="1" parent="1">
          <mxGeometry x="320" y="850" width="170" height="30" as="geometry" />
        </mxCell>
        <mxCell id="mnb-A4n5rvF330WSBu19-142" value="" style="strokeWidth=1;shadow=0;dashed=0;align=center;html=1;shape=mxgraph.mockup.containers.browserWindow;rSize=0;strokeColor=#666666;strokeColor2=#008cff;strokeColor3=#c4c4c4;mainText=,;recursiveResize=0;" vertex="1" parent="1">
          <mxGeometry x="520" y="840" width="240" height="120" as="geometry" />
        </mxCell>
        <mxCell id="mnb-A4n5rvF330WSBu19-143" value="" style="ellipse;whiteSpace=wrap;html=1;aspect=fixed;fillColor=none;strokeColor=#b85450;" vertex="1" parent="mnb-A4n5rvF330WSBu19-142">
          <mxGeometry y="53" width="40" height="40" as="geometry" />
        </mxCell>
        <mxCell id="mnb-A4n5rvF330WSBu19-144" value="Page 1" style="strokeWidth=1;shadow=0;dashed=0;align=center;html=1;shape=mxgraph.mockup.containers.anchor;fontSize=17;fontColor=#666666;align=left;whiteSpace=wrap;" vertex="1" parent="mnb-A4n5rvF330WSBu19-142">
          <mxGeometry x="60" y="12" width="110" height="26" as="geometry" />
        </mxCell>
        <mxCell id="mnb-A4n5rvF330WSBu19-145" value="https://www.draw.io" style="strokeWidth=1;shadow=0;dashed=0;align=center;html=1;shape=mxgraph.mockup.containers.anchor;rSize=0;fontSize=17;fontColor=#666666;align=left;" vertex="1" parent="mnb-A4n5rvF330WSBu19-142">
          <mxGeometry x="130" y="60" width="110" height="26" as="geometry" />
        </mxCell>
        <mxCell id="mnb-A4n5rvF330WSBu19-146" value="User goes back to home page" style="text;html=1;strokeColor=none;fillColor=none;align=center;verticalAlign=middle;whiteSpace=wrap;rounded=0;" vertex="1" parent="1">
          <mxGeometry x="530" y="985" width="220" height="30" as="geometry" />
        </mxCell>
      </root>
    </mxGraphModel>
  </diagram>
</mxfile>
